<svg width="40" height="40" viewBox="0 0 40 40" fill="none" xmlns="http://www.w3.org/2000/svg">
<g clip-path="url(#clip0_39_224)">
<path d="M23.6439 13.0345C20.1551 13.0345 17.2881 15.8621 17.2881 19.3794V29.3104C17.2881 29.6897 17.599 30.0001 17.9789 30.0001H21.5713C21.9513 30.0001 22.2622 29.6897 22.2622 29.3104V19.6552C22.2622 18.8966 22.8839 18.2759 23.6439 18.2759C24.4038 18.2759 25.0256 18.8966 25.0256 19.6552V29.3104C25.0256 29.6897 25.3364 30.0001 25.7164 30.0001H29.3088C29.6888 30.0001 29.9997 29.6897 29.9997 29.3104V19.3794C29.9997 15.8966 27.1672 13.0345 23.6439 13.0345Z" fill="#505F79"/>
<path d="M14.2832 16.2759H10.6908C10.3109 16.2759 10 16.5862 10 16.9655V29.3104C10 29.6897 10.3109 30 10.6908 30H14.2832C14.6632 30 14.9741 29.6897 14.9741 29.3104V16.9655C14.9741 16.5862 14.6632 16.2759 14.2832 16.2759Z" fill="#505F79"/>
<path d="M12.487 10C11.1054 10 10 11.1034 10 12.4828C10 13.8621 11.1054 14.9655 12.487 14.9655C13.8687 14.9655 14.9741 13.8621 14.9741 12.4828C14.9741 11.1034 13.8687 10 12.487 10Z" fill="#505F79"/>
</g>
<defs>
<clipPath id="clip0_39_224">
<rect width="20" height="20" fill="white" transform="translate(10 10)"/>
</clipPath>
</defs>
</svg>
